<?xml version="1.0" encoding="UTF-8" standalone="no"?>
<!-- Created with Inkscape (http://www.inkscape.org/) -->

<svg
   xmlns:dc="http://purl.org/dc/elements/1.1/"
   xmlns:cc="http://creativecommons.org/ns#"
   xmlns:rdf="http://www.w3.org/1999/02/22-rdf-syntax-ns#"
   xmlns:svg="http://www.w3.org/2000/svg"
   xmlns="http://www.w3.org/2000/svg"
   xmlns:sodipodi="http://sodipodi.sourceforge.net/DTD/sodipodi-0.dtd"
   xmlns:inkscape="http://www.inkscape.org/namespaces/inkscape"
   width="216.86453mm"
   height="217.04132mm"
   viewBox="0 0 216.86453 217.04132"
   version="1.1"
   id="svg8"
   inkscape:version="0.92.2 (5c3e80d, 2017-08-06)"
   sodipodi:docname="yls_cyber_center_lock_logo.svg">
  <defs
     id="defs2">
    <filter
       style="color-interpolation-filters:sRGB"
       inkscape:label="Colorize"
       id="filter857">
      <feComposite
         in2="SourceGraphic"
         operator="arithmetic"
         k1="0"
         k2="1"
         result="composite1"
         id="feComposite843"
         k3="0"
         k4="0" />
      <feColorMatrix
         in="composite1"
         values="1"
         type="saturate"
         result="colormatrix1"
         id="feColorMatrix845" />
      <feFlood
         flood-opacity="1"
         flood-color="rgb(191,86,246)"
         result="flood1"
         id="feFlood847" />
      <feBlend
         in="flood1"
         in2="colormatrix1"
         mode="multiply"
         result="blend1"
         id="feBlend849" />
      <feBlend
         in2="blend1"
         mode="screen"
         result="blend2"
         id="feBlend851" />
      <feColorMatrix
         in="blend2"
         values="1"
         type="saturate"
         result="colormatrix2"
         id="feColorMatrix853" />
      <feComposite
         in="colormatrix2"
         in2="SourceGraphic"
         operator="in"
         result="fbSourceGraphic"
         id="feComposite855" />
      <feColorMatrix
         result="fbSourceGraphicAlpha"
         in="fbSourceGraphic"
         values="0 0 0 -1 0 0 0 0 -1 0 0 0 0 -1 0 0 0 0 1 0"
         id="feColorMatrix859" />
      <feComposite
         in2="fbSourceGraphic"
         id="feComposite861"
         operator="arithmetic"
         k1="0"
         k2="1"
         result="composite1"
         in="fbSourceGraphic"
         k3="0"
         k4="0" />
      <feColorMatrix
         id="feColorMatrix863"
         in="composite1"
         values="1"
         type="saturate"
         result="colormatrix1" />
      <feFlood
         id="feFlood865"
         flood-opacity="1"
         flood-color="rgb(0,142,92)"
         result="flood1" />
      <feBlend
         in2="colormatrix1"
         id="feBlend867"
         in="flood1"
         mode="multiply"
         result="blend1" />
      <feBlend
         in2="blend1"
         id="feBlend869"
         mode="screen"
         result="blend2" />
      <feColorMatrix
         id="feColorMatrix871"
         in="blend2"
         values="1"
         type="saturate"
         result="colormatrix2" />
      <feComposite
         in2="fbSourceGraphic"
         id="feComposite873"
         in="colormatrix2"
         operator="in"
         result="fbSourceGraphic" />
      <feColorMatrix
         result="fbSourceGraphicAlpha"
         in="fbSourceGraphic"
         values="0 0 0 -1 0 0 0 0 -1 0 0 0 0 -1 0 0 0 0 1 0"
         id="feColorMatrix875" />
      <feComposite
         in2="fbSourceGraphic"
         id="feComposite877"
         operator="arithmetic"
         k1="0"
         k2="1"
         result="composite1"
         in="fbSourceGraphic"
         k3="0"
         k4="0" />
      <feColorMatrix
         id="feColorMatrix879"
         in="composite1"
         values="1"
         type="saturate"
         result="colormatrix1" />
      <feFlood
         id="feFlood881"
         flood-opacity="1"
         flood-color="rgb(0,142,92)"
         result="flood1" />
      <feBlend
         in2="colormatrix1"
         id="feBlend883"
         in="flood1"
         mode="multiply"
         result="blend1" />
      <feBlend
         in2="blend1"
         id="feBlend885"
         mode="screen"
         result="blend2" />
      <feColorMatrix
         id="feColorMatrix887"
         in="blend2"
         values="1"
         type="saturate"
         result="colormatrix2" />
      <feComposite
         in2="fbSourceGraphic"
         id="feComposite889"
         in="colormatrix2"
         operator="in"
         result="fbSourceGraphic" />
      <feColorMatrix
         result="fbSourceGraphicAlpha"
         in="fbSourceGraphic"
         values="0 0 0 -1 0 0 0 0 -1 0 0 0 0 -1 0 0 0 0 1 0"
         id="feColorMatrix891" />
      <feComposite
         in2="fbSourceGraphic"
         id="feComposite893"
         operator="arithmetic"
         k1="0"
         k2="1"
         result="composite1"
         in="fbSourceGraphic"
         k3="0"
         k4="0" />
      <feColorMatrix
         id="feColorMatrix895"
         in="composite1"
         values="1"
         type="saturate"
         result="colormatrix1" />
      <feFlood
         id="feFlood897"
         flood-opacity="1"
         flood-color="rgb(0,142,92)"
         result="flood1" />
      <feBlend
         in2="colormatrix1"
         id="feBlend899"
         in="flood1"
         mode="multiply"
         result="blend1" />
      <feBlend
         in2="blend1"
         id="feBlend901"
         mode="screen"
         result="blend2" />
      <feColorMatrix
         id="feColorMatrix903"
         in="blend2"
         values="1"
         type="saturate"
         result="colormatrix2" />
      <feComposite
         in2="fbSourceGraphic"
         id="feComposite905"
         in="colormatrix2"
         operator="in"
         result="composite2" />
    </filter>
    <filter
       style="color-interpolation-filters:sRGB;"
       inkscape:label="Color Shift"
       id="filter998">
      <feColorMatrix
         type="hueRotate"
         values="284"
         result="color1"
         id="feColorMatrix994" />
      <feColorMatrix
         type="saturate"
         values="0.79"
         result="fbSourceGraphic"
         id="feColorMatrix996" />
      <feColorMatrix
         result="fbSourceGraphicAlpha"
         in="fbSourceGraphic"
         values="0 0 0 -1 0 0 0 0 -1 0 0 0 0 -1 0 0 0 0 1 0"
         id="feColorMatrix1084" />
      <feColorMatrix
         id="feColorMatrix1086"
         type="hueRotate"
         values="360"
         result="color1"
         in="fbSourceGraphic" />
      <feColorMatrix
         id="feColorMatrix1088"
         type="saturate"
         values="0.79"
         result="color2" />
    </filter>
  </defs>
  <sodipodi:namedview
     id="base"
     pagecolor="#ffffff"
     bordercolor="#666666"
     borderopacity="1.0"
     inkscape:pageopacity="0.0"
     inkscape:pageshadow="2"
     inkscape:zoom="0.5"
     inkscape:cx="392.26938"
     inkscape:cy="339.80279"
     inkscape:document-units="mm"
     inkscape:current-layer="layer1"
     showgrid="false"
     fit-margin-top="0"
     fit-margin-left="0"
     fit-margin-bottom="0"
     fit-margin-right="0"
     inkscape:window-width="1920"
     inkscape:window-height="1001"
     inkscape:window-x="0"
     inkscape:window-y="27"
     inkscape:window-maximized="1" />
  <metadata
     id="metadata5">
    <rdf:RDF>
      <cc:Work
         rdf:about="">
        <dc:format>image/svg+xml</dc:format>
        <dc:type
           rdf:resource="http://purl.org/dc/dcmitype/StillImage" />
        <dc:title></dc:title>
      </cc:Work>
    </rdf:RDF>
  </metadata>
  <g
     inkscape:label="Layer 1"
     inkscape:groupmode="layer"
     id="layer1"
     transform="translate(-7.2004761,2.0986434)">
    <g
       transform="matrix(0.04343897,0,0,0.0434749,-217.98571,15.988133)"
       id="g18"
       style="opacity:0.7;filter:url(#filter998)">
      <path
         style="fill:#ececf6"
         inkscape:connector-curvature="0"
         d="m 5600,0 v 189 h 189 V 0 Z m 1045,0 v 189 h 189 V 0 Z m 209.01,0 v 189 h 189 V 0 Z m 1045,0 v 189 h 189 V 0 Z m 836.03,0 c -0.01,63 -0.01,126 0,189 h 189 c -0.01,-63 -0.01,-126 0,-189 z m -1463.1,209.01 v 189 h 189 v -189 z m 1463.1,0 c -0.01,63 -0.01,126 0,189 h 189 c -0.01,-63 -0.01,-126 0,-189 z m -1672.1,209.51 v 188 h 189 v -188 z m 627.02,0 v 188 h 189 v -188 z m 1881.1,0 c -0.01,62.67 -0.01,125.33 0,188 h 189 v -188 z m -2299.1,208.51 v 189 h 189 v -189 z m 1254,0 c -0.01,63 0,126 0,189 h 189 c 0,-63 -0.01,-126 0,-189 z m -2507.6,209.01 v 189 h 188 v -189 z m 626.52,0 v 189 h 189 v -189 z m 2717.1,0 c -0.01,63 -0.01,126 0,189 h 189 c -0.01,-63 -0.01,-126 0,-189 z m -2717.1,209.01 v 189 h 189 v -189 z m 418.02,0 v 189 h 189 v -189 z m 209.01,0 v 189 h 189 v -189 z m -1671.8,209 v 189 h 189 v -189 z m 836.03,0 v 189 h 189 v -189 z m 627.02,0 v 189 h 189 v -189 z m 627.02,0 v 189 h 189 v -189 z m -2090,209.1 v 189 h 189 v -189 z m 1254,0 v 189 h 189 v -189 z m 418.01,0 v 189 h 189 v -189 z m 1463.1,0 c -0.01,63 -0.01,126 0,189 h 189 c -0.01,-63 -0.01,-126 0,-189 z m 627.02,0 c -0.01,63 -0.01,126 0,189 h 189 c -0.01,-63 -0.01,-126 0,-189 z m 209.01,0 c -0.01,63 -0.01,126 0,189 h 189 v -189 z m -3344.1,209.01 v 189 h 189 v -189 z m 836.03,0 v 189 h 189 v -189 z m 418.01,0 v 189 h 189 v -189 z m -1881,209 v 189 h 189 v -189 z m 1045,0 v 189 h 189 v -189 z m -1045,209 v 189 h 189 v -189 z m 1254,0 v 189 h 189 v -189 z m 209.01,0 v 189 h 189 v -189 z m 1045,0 v 189 h 189 v -189 z m 418.02,0 c -0.01,63 0,126 0,189 h 189 c 0,-63 -0.01,-126 0,-189 z m -418.02,209.01 v 189 h 189 v -189 z m -1881.1,209.01 v 189 h 189 v -189 z m 2926.6,0 c -0.01,63 -0.01,126 0,189 h 188 c -0.01,-63 -0.01,-126 0,-189 z m -3344.6,209.01 v 189 h 189 v -189 z m 2508.1,0 v 189 h 189 v -189 z m -1672.1,209.01 v 189 c 63,0 126,-0.01 189,0 v -189 c -63,-0.01 -126,0 -189,0 z m 627.02,0 v 189 c 63,0 126,-0.01 189,0 v -189 c -63,-0.01 -126,0 -189,0 z m 836.03,0 v 189 c 63,0 126,-0.01 189,0 v -189 c -63,-0.01 -126,0 -189,0 z m 627.02,0 c -0.01,63 -0.01,125.99 0,189 62.99,0 125.99,-0.01 189,0 -0.01,-63.01 -0.01,-126 0,-189 -63.01,-0.01 -126,0 -189,0 z m -3134.9,209 v 189 c 63,-0.01 126,-0.01 189,0 v -189 c -63,-0.01 -126,-0.01 -189,0 z m 418.52,0 v 189 c 62.67,-0.01 125.33,-0.01 188,0 v -189 c -62.67,-0.01 -125.33,-0.01 -188,0 z m 208.51,0 v 189 c 63,-0.01 126,-0.01 189,0 v -189 c -63,-0.01 -126,-0.01 -189,0 z m 836.03,0 v 189 c 63,-0.01 126,-0.01 189,0 v -189 c -63,-0.01 -126,-0.01 -189,0 z m -836.03,209.01 v 189 c 63,-0.01 126,-0.01 189,0 v -189 c -63,-0.01 -126,-0.01 -189,0 z m 627.02,0 v 189 c 63,-0.01 126,-0.01 189,0 v -189 c -63,-0.01 -126,-0.01 -189,0 z m 627.02,0 v 189 c 63,-0.01 126,-0.01 189,0 v -189 c -63,-0.01 -126,-0.01 -189,0 z m 1672.6,0 c -0.01,62.99 -0.01,125.99 0,189 62.66,-0.01 125.33,-0.01 188,0 -0.01,-63.01 -0.01,-126.01 0,-189 -62.67,-0.01 -125.34,-0.01 -188,0 z m -2717.6,209.51 v 188 c 63,-0.01 126,-0.01 189,0 v -188 c -63,-0.01 -126,-0.01 -189,0 z m 627.02,0 v 188 c 63,-0.01 126,-0.01 189,0 v -188 c -63,-0.01 -126,-0.01 -189,0 z m 209.01,0 v 188 c 63,-0.01 126,-0.01 189,0 v -188 c -63,-0.01 -126,-0.01 -189,0 z m 209.01,0 v 188 c 63,-0.01 126,-0.01 189,0 v -188 c -63,-0.01 -126,-0.01 -189,0 z m 627.02,0 v 188 c 63,-0.01 126,-0.01 189,0 v -188 c -63,-0.01 -126,-0.01 -189,0 z m -2508,208.5 v 189 c 63,-0.01 126,-0.01 189,0 v -189 c -63,-0.01 -126,-0.01 -189,0 z m 2299.1,0 v 189 c 63,-0.01 126,-0.01 189,0 v -189 c -63,-0.01 -126,-0.01 -189,0 z m 627.02,0 c -0.01,62.99 0,125.99 0,189 63,-0.01 125.99,-0.01 189,0 0,-63.01 -0.01,-126.01 0,-189 -63.01,-0.01 -126,-0.01 -189,0 z m 627.52,0 c -0.01,62.99 -0.01,125.99 0,189 62.66,-0.01 125.33,-0.01 188,0 -0.01,-63.01 -0.01,-126.01 0,-189 -62.67,-0.01 -125.34,-0.01 -188,0 z m 208.51,0 c -0.01,62.99 -0.01,125.99 0,189 62.99,-0.01 125.99,-0.01 189,0 -0.01,-63.01 -0.01,-126.01 0,-189 -63.01,-0.01 -126.01,-0.01 -189,0 z m -3553.1,209.01 v 189 h 189 v -189 c -63,-0.01 -126,-0.01 -189,0 z"
         id="path2" />
      <path
         style="fill:#bad8f6"
         inkscape:connector-curvature="0"
         d="m 5809,0 v 189 h 189 V 0 Z m 1881.1,0 v 189 h 189 V 0 Z M 6018.5,209.01 v 189 h 188 v -189 z m 1462.6,0 v 189 h 189 v -189 z m 627.02,0 v 189 h 189 v -189 z m 836.03,0 c -0.01,63 -0.01,126 0,189 h 189 c -0.01,-63 -0.01,-126 0,-189 z m 209.51,0 c -0.01,63 -0.01,126 0,189 h 188 c -0.01,-63 -0.01,-126 0,-189 z m -2717.6,209.51 v 188 h 189 v -188 z m 1672.1,0 v 188 h 189 v -188 z m -1672.1,417.51 v 189 h 189 v -189 z m 1045,0 v 189 h 189 v -189 z m 418.02,0 v 189 h 189 v -189 z m -1463.1,209.01 v 189 h 189 v -189 z m 1045,0 v 189 h 189 v -189 z m 209.01,0 v 189 h 189 v -189 z m 1463.6,0 c -0.01,63 -0.01,126 0,189 h 188 c -0.01,-63 -0.01,-126 0,-189 z m 208.51,0 c -0.01,63 -0.01,126 0,189 h 189 c -0.01,-63 -0.01,-126 0,-189 z M 5809,1254.05 v 189 h 189 v -189 z m 836.03,0 v 189 h 189 v -189 z m 209.01,0 v 189 h 189 v -189 z m 1045,0 v 189 h 189 v -189 z m 1045,0 c -0.01,63 -0.01,126 0,189 h 189 c -0.01,-63 -0.01,-126 0,-189 z m 418.02,0 c -0.01,63 -0.01,126 0,189 h 189 c -0.01,-63 -0.01,-126 0,-189 z m -2508.1,418.01 v 189 h 189 v -189 z m 2299.6,0 c -0.01,63 -0.01,126 0,189 h 188 c -0.01,-63 -0.01,-126 0,-189 z m -1672.6,209.01 v 189 h 189 v -189 z m 1254,0 c -0.01,63 -0.01,126 0,189 h 189 c -0.01,-63 -0.01,-126 0,-189 z m 209.01,0 c -0.01,63 -0.01,126 0,189 h 189 c -0.01,-63 -0.01,-126 0,-189 z m 627.02,0 c -0.01,63 -0.01,126 0,189 h 189 v -189 z m -627.02,209.01 c -0.01,63 -0.01,126 0,189 h 189 c -0.01,-63 -0.01,-126 0,-189 z m 209.51,0 c -0.01,63 -0.01,126 0,189 h 188 c -0.01,-63 -0.01,-126 0,-189 z m -2090.6,209.01 v 189 h 189 v -189 z m 627.02,0 v 189 h 189 v -189 z m 1045,0 c -0.01,63 -0.01,126 0,189 h 189 c -0.01,-63 -0.01,-126 0,-189 z m 836.03,0 c -0.01,63 -0.01,126 0,189 h 189 v -189 z m -2926.1,209.01 v 189 h 189 v -189 z m 836.03,0 v 189 h 189 v -189 z m 836.03,0 v 189 h 189 v -189 z m -2508.1,418.02 v 189 c 63,0 126,-0.01 189,0 v -189 c -63,-0.01 -126,0 -189,0 z m 2090.1,0 v 189 c 63,0 126,-0.01 189,0 v -189 c -63,-0.01 -126,0 -189,0 z m -1463.1,209.01 v 189 c 63,-0.01 126,-0.01 189,0 v -189 c -63,-0.01 -126,-0.01 -189,0 z m 418.02,0 v 189 c 63,-0.01 126,-0.01 189,0 v -189 c -63,-0.01 -126,-0.01 -189,0 z m 1881.1,0 c -0.01,62.99 -0.01,125.99 0,189 62.99,-0.01 125.99,-0.01 189,0 -0.01,-63.01 -0.01,-126 0,-189 -63.01,-0.01 -126,-0.01 -189,0 z m 627.02,0 c -0.01,62.99 -0.01,125.99 0,189 62.99,-0.01 125.99,-0.01 189,0 -0.01,-63.01 -0.01,-126 0,-189 -63.01,-0.01 -126.01,-0.01 -189,0 z m 0,209.01 c -0.01,62.99 -0.01,125.99 0,189 62.99,-0.01 125.99,-0.01 189,0 -0.01,-63.01 -0.01,-126.01 0,-189 -63.01,-0.01 -126.01,-0.01 -189,0 z m 209.01,0 c -0.01,62.99 -0.01,125.99 0,189 62.99,-0.01 125.99,-0.01 189,0 v -189 c -63.01,-0.01 -126.01,-0.01 -189,0 z m -2926.1,209.51 v 188 c 63,-0.01 126,-0.01 189,0 v -188 c -63,-0.01 -126,-0.01 -189,0 z m 2926.1,0 c -0.01,62.66 -0.01,125.33 0,188 62.99,-0.01 125.99,-0.01 189,0 v -188 c -63.01,-0.01 -126.01,-0.01 -189,0 z m -3344.1,208.51 v 189 c 63,-0.01 126,-0.01 189,0 v -189 c -63,-0.01 -126,-0.01 -189,0 z m 836.03,0 v 189 c 63,-0.01 126,-0.01 189,0 v -189 c -63,-0.01 -126,-0.01 -189,0 z m -627.02,209.01 v 189 h 189 v -189 c -63,-0.01 -126,-0.01 -189,0 z m 418.02,0 v 189 h 189 v -189 c -63,-0.01 -126,-0.01 -189,0 z m 1045,0 v 189 h 189 v -189 c -63,-0.01 -126,-0.01 -189,0 z m 627.02,0 c -0.01,62.99 0,125.99 0,189 h 189 c -0.01,-63.01 -0.01,-126.01 0,-189 -63.01,-0.01 -126,-0.01 -189,0 z"
         id="path4" />
      <path
         style="fill:#4283e2"
         inkscape:connector-curvature="0"
         d="m 6018.5,0 v 189 h 188 V 0 Z m 2089.6,0 v 189 h 189 V 0 Z M 5600,209.01 v 189 h 189 v -189 z m 627.02,0 v 189 h 189 v -189 z m 209.01,0 v 189 h 189 v -189 z m -627.02,209.51 v 188 h 189 v -188 z m 836.03,208.51 v 189 h 189 v -189 z m 836.03,0 v 189 h 189 v -189 z m 418.02,0 v 189 h 189 v -189 z m 1045,0 c -0.01,63 -0.01,126 0,189 h 189 c -0.01,-63 -0.01,-126 0,-189 z m -3344,209 v 189 h 189 v -189 z m 1254,0 v 189 h 189 v -189 z m 1881.1,0 c -0.01,63 -0.01,126 0,189 h 189 c -0.01,-63 -0.01,-126 0,-189 z m 209.01,0 c -0.01,63 -0.01,126 0,189 h 189 c -0.01,-63 -0.01,-126 0,-189 z m -2925.6,209.01 v 189 h 188 v -189 z m 3552.6,0 c -0.01,63 -0.01,126 0,189 h 189 v -189 z m -2299.1,209.01 v 189 h 189 v -189 z m -1045,209.01 v 189 h 189 v -189 z m 1045,209.01 v 189 h 189 v -189 z M 5809,1881.08 v 189 h 189 v -189 z m 209.51,0 v 189 h 188 v -189 z m 208.51,0 v 189 h 189 v -189 z m 209.01,209.01 v 189 h 189 v -189 z m -835.9,209.1 v 189 h 189 v -189 z m 1881.1,0 v 189 h 189 v -189 z m 836.03,0 v 189 h 189 v -189 z m 209.01,0 c -0.01,63 0,126 0,189 h 189 c 0,-63 -0.01,-126 0,-189 z m -2090.1,209.01 v 189 h 189 v -189 z m 1672.1,0 v 189 h 189 v -189 z m -2508.1,209 v 189 c 63,-0.01 126,0 189,0 v -189 z m 1045,0 v 189 h 189 v -189 z m 418.02,0 v 189 h 189 v -189 z m -1254,418.02 v 189 c 63,-0.01 126,-0.01 189,0 v -189 c -63,-0.01 -126,-0.01 -189,0 z m 2090.1,0 v 189 c 63,-0.01 126,-0.01 189,0 v -189 c -63,-0.01 -126,-0.01 -189,0 z m -2299.1,209 v 189 c 63,-0.01 126,-0.01 189,0 v -189 c -63,-0.01 -126,-0.01 -189,0 z m 209.01,209.51 v 188 c 63,-0.01 126,-0.01 189,0 v -188 c -63,-0.01 -126,-0.01 -189,0 z m 1881.1,208.51 v 189 c 63,-0.01 126,-0.01 189,0 v -189 c -63,-0.01 -126,-0.01 -189,0 z m 1045,0 c -0.01,62.99 -0.01,125.99 0,189 62.99,-0.01 125.99,-0.01 189,0 -0.01,-63.01 -0.01,-126.01 0,-189 -63.01,-0.01 -126,-0.01 -189,0 z m 209.01,0 c -0.01,62.99 -0.01,125.99 0,189 62.99,-0.01 125.99,-0.01 189,0 -0.01,-63.01 -0.01,-126.01 0,-189 -63.01,-0.01 -126.01,-0.01 -189,0 z m -1881.1,209.01 v 189 h 189 v -189 c -63,-0.01 -126,-0.01 -189,0 z m 627.02,0 v 189 h 189 v -189 c -63,-0.01 -126,-0.01 -189,0 z m 1881.1,0 c -0.01,62.99 -0.01,125.99 0,189 h 189 v -189 c -63.01,-0.01 -126.01,-0.01 -189,0 z"
         id="path6" />
      <path
         style="fill:#0a0146"
         inkscape:connector-curvature="0"
         d="m 6227,0 v 189 h 189 V 0 Z m 418.02,209.01 v 189 h 189 v -189 z m 1254,0 v 189 h 189 v -189 z m -1045,209.51 v 188 h 189 v -188 z m 627.02,0 v 188 h 189 v -188 z m -1881,208.5 v 189 h 189 v -189 z m 209.01,0 v 189 h 189 v -189 z m 1881.1,0 v 189 h 189 v -189 z m 1463.6,0 c -0.01,63 -0.01,126 0,189 h 188 c -0.01,-63 -0.01,-126 0,-189 z m -3344.6,418.02 v 189 h 189 v -189 z m 418.01,0 v 189 h 189 v -189 z m 627.02,0 v 189 h 189 v -189 z m 1045,0 v 189 h 189 v -189 z m 209.01,0 v 189 h 189 v -189 z m -1881.1,209.01 v 189 h 189 v -189 z m 2926.6,0 c -0.01,63 -0.01,126 0,189 h 188 c -0.01,-63 -0.01,-126 0,-189 z m 417.52,0 c -0.01,63 -0.01,126 0,189 h 189 v -189 z m -627.02,209.01 c -0.01,63 -0.01,126 0,189 h 189 c -0.01,-63 -0.01,-126 0,-189 z m -1254,209.01 v 189 h 189 v -189 z m 1881.1,418.02 c -0.01,63 -0.01,126 0,189 h 189 v -189 z m -3971.2,418.1 v 189 h 189 v -189 z m 1672.1,0 v 189 h 189 v -189 z m 418.02,0 v 189 h 189 v -189 z m 1045,0 c -0.01,63 -0.01,126 0,189 h 189 c -0.01,-63 -0.01,-126 0,-189 z m 418.52,209.01 c -0.01,63 -0.01,125.99 0,189 h 188 c -0.01,-63.01 -0.01,-126 0,-189 z m -3553.6,209 v 189 c 63,-0.01 126,-0.01 189,0 v -189 c -63,-0.01 -126,0 -189,0 z m 836.03,0 v 189 c 63,0 126,-0.01 189,0 v -189 c -63,-0.01 -126,0 -189,0 z m 1254,0 v 189 c 63,0 126,-0.01 189,0 v -189 c -63,-0.01 -126,0 -189,0 z m 627.02,0 v 189 c 63,0 125.99,-0.01 189,0 v -189 c -63.01,-0.01 -126,0 -189,0 z m 627.03,0 c -0.01,63 -0.01,125.99 0,189 62.99,0 125.99,-0.01 189,0 -0.01,-63.01 -0.01,-126 0,-189 -63.01,-0.01 -126.01,0 -189,0 z m 209.51,0 c -0.01,63 -0.01,125.99 0,189 62.66,-0.01 125.33,-0.01 188,0 -0.01,-63.01 -0.01,-126 0,-189 -62.67,-0.01 -125.34,-0.01 -188,0 z m -1463.6,209.01 v 189 c 63,-0.01 126,-0.01 189,0 v -189 c -63,-0.01 -126,-0.01 -189,0 z m 627.02,0 v 189 c 63,-0.01 125.99,-0.01 189,0 v -189 c -63.01,-0.01 -126,-0.01 -189,0 z m -2508.1,627.02 v 189 c 63,-0.01 126,-0.01 189,0 v -189 c -63,-0.01 -126,-0.01 -189,0 z m 209.51,0 v 189 c 62.67,-0.01 125.33,-0.01 188,0 v -189 c -62.67,-0.01 -125.33,-0.01 -188,0 z m 1462.6,0 v 189 c 63,-0.01 126,-0.01 189,0 v -189 c -63,-0.01 -126,-0.01 -189,0 z m -1880.9,209 v 189 h 189 v -189 c -63,-0.01 -126,-0.01 -189,0 z m 1672.1,0 v 189 h 189 v -189 c -63,-0.01 -126,-0.01 -189,0 z m 836.03,0 v 189 h 189 v -189 c -63,-0.01 -126,-0.01 -189,0 z"
         id="path8" />
      <path
         style="fill:#7ed8f6"
         inkscape:connector-curvature="0"
         d="m 6436,0 v 189 h 189 V 0 Z m 836.03,0 v 189 h 189 V 0 Z m 1045,209.01 v 189 h 189 v -189 z m 0,209.51 v 188 h 189 v -188 z m 209.01,0 c -0.01,62.67 -0.01,125.33 0,188 h 189 c -0.01,-62.67 -0.01,-125.33 0,-188 z m 418.01,0 c -0.01,62.67 -0.01,125.33 0,188 h 189 c -0.01,-62.67 -0.01,-125.33 0,-188 z m -2508.1,208.51 v 189 h 189 v -189 z m 418.02,0 v 189 h 189 v -189 z m 1254,0 v 189 h 189 v -189 z m 209.01,0 v 189 h 189 v -189 z m 1254,0 c -0.01,63 -0.01,126 0,189 h 189 v -189 z m -3344.1,209.01 v 189 h 189 v -189 z m 1463.1,0 v 189 h 189 v -189 z m 836.03,0 c -0.01,63 0,126 0,189 h 189 c 0,-63 -0.01,-126 0,-189 z m 1045,0 c -0.01,63 -0.01,126 0,189 h 189 v -189 z m -3552.6,418.02 v 189 h 188 v -189 z m 1462.6,0 v 189 h 189 v -189 z m 1045,0 c -0.01,63 0,126 0,189 h 189 c 0,-63 -0.01,-126 0,-189 z m 209.01,0 c -0.01,63 -0.01,126 0,189 h 189 c -0.01,-63 -0.01,-126 0,-189 z m -2926.1,209.01 v 189 h 189 v -189 z m 1672.1,0 v 189 h 189 v -189 z m 836.03,0 v 189 h 189 v -189 z m 1254,209.01 c -0.01,63 -0.01,126 0,189 h 189 v -189 z m -2508.1,209.01 v 189 h 189 v -189 z m 836.03,0 v 189 h 189 v -189 z m 1254.5,0 c -0.01,63 -0.01,126 0,189 h 188 c -0.01,-63 -0.01,-126 0,-189 z m -2926.6,209.01 v 189 h 189 v -189 z m 418.02,0 v 189 h 189 v -189 z m 1045,0 v 189 h 189 v -189 z m 209.01,0 v 189 h 189 v -189 z m -1672.1,209.01 v 189 h 189 v -189 z m 418.02,0 v 189 h 189 v -189 z m 2508.6,0 c -0.01,63 -0.01,126 0,189 h 188 c -0.01,-63 -0.01,-126 0,-189 z m -3344.6,209.01 v 189 h 189 v -189 z m 1254,0 v 189 h 189 v -189 z m 1463.1,0 c -0.01,63 0,126 0,189 h 189 c 0,-63 -0.01,-126 0,-189 z m 418.02,0 c -0.01,63 -0.01,126 0,189 h 189 c -0.01,-63 -0.01,-126 0,-189 z m 418.02,0 c -0.01,63 -0.01,126 0,189 h 189 c -0.01,-63 -0.01,-126 0,-189 z m -3343.6,209.01 v 189 h 188 v -189 z m 835.53,0 v 189 h 189 v -189 z m 1254,0 v 189 h 189 v -189 z m 418.02,0 c -0.01,63 0,125.99 0,189 h 189 c 0,-63.01 -0.01,-126 0,-189 z m -2299.1,209.01 v 189 c 63,0 126,-0.01 189,0 v -189 c -63,-0.01 -126,0 -189,0 z m -208.51,0 v 189 c 62.67,-0.01 125.33,-0.01 188,0 v -189 c -62.67,-0.01 -125.33,-0.01 -188,0 z m 626.52,209.01 v 189 c 63,-0.01 126,-0.01 189,0 v -189 c -63,-0.01 -126,-0.01 -189,0 z m 1463.1,0 v 189 c 63,-0.01 126,-0.01 189,0 v -189 c -63,-0.01 -126,-0.01 -189,0 z m 836.03,0 c -0.01,62.99 -0.01,125.99 0,189 62.99,-0.01 125.99,-0.01 189,0 -0.01,-63.01 -0.01,-126 0,-189 -63.01,-0.01 -126.01,-0.01 -189,0 z m -2299.1,209.01 v 189 c 63,-0.01 126,-0.01 189,0 v -189 c -63,-0.01 -126,-0.01 -189,0 z m 418.02,0 v 189 c 63,-0.01 126,-0.01 189,0 v -189 c -63,-0.01 -126,-0.01 -189,0 z m 209.01,0 v 189 c 63,-0.01 126,-0.01 189,0 v -189 c -63,-0.01 -126,-0.01 -189,0 z m 627.02,0 v 189 c 63,-0.01 126,-0.01 189,0 v -189 c -63,-0.01 -126,-0.01 -189,0 z m 1045,0 c -0.01,62.99 -0.01,125.99 0,189 62.99,-0.01 125.99,-0.01 189,0 -0.01,-63.01 -0.01,-126.01 0,-189 -63.01,-0.01 -126.01,-0.01 -189,0 z m -209.01,209.51 c -0.01,62.66 -0.01,125.33 0,188 62.99,-0.01 125.99,-0.01 189,0 -0.01,-62.67 -0.01,-125.34 0,-188 -63.01,-0.01 -126,-0.01 -189,0 z m 627.02,0 c -0.01,62.66 -0.01,125.33 0,188 62.99,-0.01 125.99,-0.01 189,0 -0.01,-62.67 -0.01,-125.34 0,-188 -63.01,-0.01 -126.01,-0.01 -189,0 z m -1045,208.51 v 189 c 63,-0.01 125.99,-0.01 189,0 v -189 c -63.01,-0.01 -126,-0.01 -189,0 z m 1254,0 c -0.01,62.99 -0.01,125.99 0,189 62.99,-0.01 125.99,-0.01 189,0 v -189 c -63.01,-0.01 -126.01,-0.01 -189,0 z m -2090.1,209.01 v 189 h 189 v -189 c -63,-0.01 -126,-0.01 -189,0 z m 836.03,0 v 189 h 189 c -0.01,-63.01 0,-126.01 0,-189 -63.01,-0.01 -126,-0.01 -189,0 z"
         id="path10" />
      <path
         style="fill:#3753d0"
         inkscape:connector-curvature="0"
         d="m 7063.1,0 v 189 h 189 V 0 Z m 1463.1,0 c 0,63 -0.01,126 0,189 h 189 c 0,-63 -0.01,-126 0,-189 z m 627.52,0 c -0.01,63 -0.01,126 0,189 h 188 c -0.01,-63 -0.01,-126 0,-189 z m -3344.6,209.01 v 189 h 189 v -189 z m 1254,0 v 189 h 189 v -189 z m 627.02,0 v 189 h 189 v -189 z m -1463.1,209.51 v 188 h 189 v -188 z m 1045,0 v 188 h 189 v -188 z m 1463.1,0 c -0.01,62.67 -0.01,125.33 0,188 h 189 c -0.01,-62.67 -0.01,-125.33 0,-188 z m -2508.1,208.51 v 189 h 189 v -189 z m -418.01,209.01 v 189 h 189 v -189 z m 2299.1,0 v 189 h 189 v -189 z m 209.01,209.01 v 189 h 189 v -189 z m -209.01,209.01 v 189 h 189 v -189 z m -1672.1,209.01 v 189 h 189 v -189 z m 1254,0 v 189 h 189 v -189 z m -2090,209.1 v 189 h 189 v -189 z m 2508.1,0 v 189 h 189 v -189 z m 209.01,0 v 189 h 189 v -189 z m 1045,0 c -0.01,63 -0.01,126 0,189 h 189 c -0.01,-63 -0.01,-126 0,-189 z m -2926.1,209.01 v 189 h 189 v -189 z m 1672.1,0 v 189 h 189 v -189 z m -2089.6,209.01 v 189 h 188 v -189 z m 1462.6,0 v 189 h 189 v -189 z m 1254,0 c -0.01,63 -0.01,126 0,189 h 189 c -0.01,-63 -0.01,-126 0,-189 z m 627.02,0 c -0.01,63 -0.01,126 0,189 h 189 c -0.01,-63 -0.01,-126 0,-189 z m -2508.1,209.01 v 189 h 189 v -189 z m 418.01,0 v 189 h 189 v -189 z m 2090.1,0 c -0.01,63 -0.01,126 0,189 h 189 c -0.01,-63 -0.01,-126 0,-189 z m -3343.6,209.01 v 189 h 188 v -189 z m 1880.6,0 v 189 h 189 v -189 z m -1672.1,209.01 v 189 h 189 v -189 z m 1463.1,0 v 189 h 189 v -189 z m 1045,0 c -0.01,63 -0.01,125.99 0,189 h 189 c -0.01,-63.01 -0.01,-126 0,-189 z m 209.01,0 c -0.01,63 -0.01,125.99 0,189 h 189 c -0.01,-63.01 -0.01,-126 0,-189 z m -2090.1,209.01 v 189 c 63,0 126,-0.01 189,0 v -189 c -63,-0.01 -126,0 -189,0 z m 209.01,0 v 189 c 63,0 126,-0.01 189,0 v -189 c -63,-0.01 -126,0 -189,0 z m 418.01,0 v 189 c 63,0 126,-0.01 189,0 v -189 c -63,-0.01 -126,0 -189,0 z m 1045,0 c -0.01,63 0,125.99 0,189 63,0 125.99,-0.01 189,0 0,-63.01 -0.01,-126 0,-189 -63.01,-0.01 -126,0 -189,0 z m 0,209.01 c -0.01,62.99 0,125.99 0,189 63,-0.01 125.99,-0.01 189,0 0,-63.01 -0.01,-126 0,-189 -63.01,-0.01 -126,-0.01 -189,0 z m 627.52,0 c -0.01,62.99 -0.01,125.99 0,189 62.66,-0.01 125.33,-0.01 188,0 -0.01,-63.01 -0.01,-126 0,-189 -62.67,-0.01 -125.34,-0.01 -188,0 z m 417.52,0 c -0.01,62.99 -0.01,125.99 0,189 62.99,-0.01 125.99,-0.01 189,0 v -189 c -63.01,-0.01 -126.01,-0.01 -189,0 z m -1254,209.01 v 189 c 63,-0.01 125.99,-0.01 189,0 v -189 c -63.01,-0.01 -126,-0.01 -189,0 z m 418.02,0 c -0.01,62.99 -0.01,125.99 0,189 62.99,-0.01 125.99,-0.01 189,0 -0.01,-63.01 -0.01,-126.01 0,-189 -63.01,-0.01 -126,-0.01 -189,0 z m -1881.1,209.51 v 188 c 63,-0.01 126,-0.01 189,0 v -188 c -63,-0.01 -126,-0.01 -189,0 z m 1045,0 v 188 c 63,-0.01 126,-0.01 189,0 v -188 c -63,-0.01 -126,-0.01 -189,0 z m 418.01,0 v 188 c 63,-0.01 125.99,-0.01 189,0 v -188 c -63.01,-0.01 -126,-0.01 -189,0 z m 836.53,0 c -0.01,62.66 -0.01,125.33 0,188 62.66,-0.01 125.33,-0.01 188,0 -0.01,-62.67 -0.01,-125.34 0,-188 -62.67,-0.01 -125.34,-0.01 -188,0 z M 6854,3762.27 v 189 c 63,-0.01 126,-0.01 189,0 v -189 c -63,-0.01 -126,-0.01 -189,0 z m -627.02,209.01 v 189 h 189 v -189 c -63,-0.01 -126,-0.01 -189,0 z m 2926.6,0 c -0.01,62.99 -0.01,125.99 0,189 h 188 c -0.01,-63.01 -0.01,-126.01 0,-189 -62.67,-0.01 -125.34,-0.01 -188,0 z"
         id="path12" />
      <path
         style="fill:#10247e"
         inkscape:connector-curvature="0"
         d="m 7481.1,0 v 189 h 189 V 0 Z m 1463.1,0 c -0.01,63 -0.01,126 0,189 h 189 c -0.01,-63 -0.01,-126 0,-189 z m 418.02,209.01 c -0.01,63 -0.01,126 0,189 h 189 c -0.01,-63 -0.01,-126 0,-189 z m -208.51,209.51 c -0.01,62.67 -0.01,125.33 0,188 h 188 c -0.01,-62.67 -0.01,-125.33 0,-188 z m 208.51,0 c -0.01,62.67 -0.01,125.33 0,188 h 189 c -0.01,-62.67 -0.01,-125.33 0,-188 z M 8735.2,627.03 c -0.01,63 -0.01,126 0,189 h 189 c -0.01,-63 -0.01,-126 0,-189 z M 7272.1,836.04 v 189 h 189 v -189 z m 1045,0 v 189 h 189 v -189 z M 5600,1045 v 189 h 189 v -189 z m 1463.1,418.02 v 189 h 189 v -189 z m 836.03,0 v 189 h 189 v -189 z m 627.02,0 c -0.01,63 0,126 0,189 h 189 c 0,-63 -0.01,-126 0,-189 z m -2717.1,209.01 v 189 h 189 v -189 z m 209.51,0 v 189 h 188 v -189 z m 417.51,0 v 189 h 189 v -189 z m 209.01,0 v 189 h 189 v -189 z m 1254,0 v 189 h 189 v -189 z m 1045,0 c -0.01,63 -0.01,126 0,189 h 189 c -0.01,-63 -0.01,-126 0,-189 z m -2090.1,209.01 v 189 h 189 v -189 z m 418.01,0 v 189 h 189 v -189 z m 1045,0 v 189 h 189 v -189 z m 1045,0 c -0.01,63 -0.01,126 0,189 h 189 c -0.01,-63 -0.01,-126 0,-189 z m -3553.1,209.01 v 189 h 189 v -189 z m 1463.1,0 v 189 h 189 v -189 z m 1045,0 v 189 h 189 v -189 z m -2298.6,209.01 v 189 h 188 v -189 z m 417.51,0 v 189 h 189 v -189 z m 1463.1,0 v 189 h 189 v -189 z m 1045,0 c -0.01,63 -0.01,126 0,189 h 189 c -0.01,-63 -0.01,-126 0,-189 z m -2090.1,209.01 v 189 h 189 v -189 z m -418.02,209.01 v 189 h 189 v -189 z m 836.03,0 v 189 h 189 v -189 z m 2090.1,209.01 c -0.01,63 -0.01,125.99 0,189 62.99,0 125.99,-0.01 189,0 -0.01,-63.01 -0.01,-126 0,-189 -63.01,-0.01 -126.01,0 -189,0 z m -1881.1,209.01 v 189 c 63,-0.01 126,-0.01 189,0 v -189 c -63,-0.01 -126,-0.01 -189,0 z m -1672.1,209.01 v 189 c 63,-0.01 126,-0.01 189,0 v -189 c -63,-0.01 -126,-0.01 -189,0 z m 209.51,0 v 189 c 62.67,-0.01 125.33,-0.01 188,0 v -189 c -62.67,-0.01 -125.33,-0.01 -188,0 z m 2089.6,0 v 189 c 63,-0.01 126,-0.01 189,0 v -189 c -63,-0.01 -126,-0.01 -189,0 z m 418.02,0 c -0.01,62.99 0,125.99 0,189 63,-0.01 125.99,-0.01 189,0 0,-63.01 -0.01,-126.01 0,-189 -63.01,-0.01 -126,-0.01 -189,0 z m -836.03,209.51 v 188 c 63,-0.01 126,-0.01 189,0 v -188 c -63,-0.01 -126,-0.01 -189,0 z m 1254,0 c -0.01,62.66 -0.01,125.33 0,188 62.99,-0.01 125.99,-0.01 189,0 -0.01,-62.67 -0.01,-125.34 0,-188 -63.01,-0.01 -126.01,-0.01 -189,0 z m -2508.1,208.51 v 189 c 63,-0.01 126,-0.01 189,0 v -189 c -63,-0.01 -126,-0.01 -189,0 z m 836.03,0 v 189 c 63,-0.01 126,-0.01 189,0 v -189 c -63,-0.01 -126,-0.01 -189,0 z m -1253.5,209.01 v 189 h 188 v -189 c -62.67,-0.01 -125.33,-0.01 -188,0 z m 626.52,0 v 189 h 189 v -189 c -63,-0.01 -126,-0.01 -189,0 z m 2090.1,0 c -0.01,62.99 -0.01,125.99 0,189 h 189 c -0.01,-63.01 -0.01,-126.01 0,-189 -63.01,-0.01 -126,-0.01 -189,0 z m 209.01,0 c -0.01,62.99 -0.01,125.99 0,189 h 189 c -0.01,-63.01 -0.01,-126.01 0,-189 -63.01,-0.01 -126.01,-0.01 -189,0 z m 418.02,0 c -0.01,62.99 -0.01,125.99 0,189 h 189 c -0.01,-63.01 -0.01,-126.01 0,-189 -63.01,-0.01 -126.01,-0.01 -189,0 z"
         id="path14" />
      <path
         style="fill:#38b0e7"
         inkscape:connector-curvature="0"
         d="m 8317.1,0 v 189 h 189 c 0,-63 -0.01,-126 0,-189 z m 1045,0 c -0.01,63 -0.01,126 0,189 h 189 c -0.01,-63 -0.01,-126 0,-189 z m 209.01,0 c -0.01,63 -0.01,126 0,189 h 189 V 0 Z m -2717.1,209.01 v 189 h 189 v -189 z m 1672.1,0 c -0.01,63 0,126 0,189 h 189 c 0,-63 -0.01,-126 0,-189 z m 1045,0 c -0.01,63 -0.01,126 0,189 h 189 v -189 z m -3971.1,209.51 v 188 h 189 v -188 z m 418.52,0 v 188 h 188 v -188 z m 626.52,0 v 188 h 189 v -188 z m 1254,0 v 188 h 189 v -188 z m -1880.6,208.51 v 189 h 188 v -189 z m 1044.5,0 v 189 h 189 v -189 z m 2299.1,0 c -0.01,63 -0.01,126 0,189 h 189 c -0.01,-63 -0.01,-126 0,-189 z m -2299.1,209.01 v 189 h 189 v -189 z m 2090.6,0 c -0.01,63 -0.01,126 0,189 h 188 c -0.01,-63 -0.01,-126 0,-189 z m -627.52,209.01 c -0.01,63 0,126 0,189 h 189 c 0,-63 -0.01,-126 0,-189 z m 209.01,0 c -0.01,63 -0.01,126 0,189 h 189 c -0.01,-63 -0.01,-126 0,-189 z m 209.01,0 c -0.01,63 -0.01,126 0,189 h 189 c -0.01,-63 -0.01,-126 0,-189 z m -627.03,209.01 v 189 h 189 v -189 z m -2298.6,209.01 v 189 h 188 v -189 z m 626.52,0 v 189 h 189 v -189 z m 1463.1,0 v 189 h 189 v -189 z m 1045.5,0 c -0.01,63 -0.01,126 0,189 h 188 c -0.01,-63 -0.01,-126 0,-189 z m -627.52,209.01 c -0.01,63 0,126 0,189 h 189 c 0,-63 -0.01,-126 0,-189 z m 209.01,0 c -0.01,63 -0.01,126 0,189 h 189 c -0.01,-63 -0.01,-126 0,-189 z m -1045,209.01 v 189 h 189 v -189 z m 836.03,0 c -0.01,63 0,126 0,189 h 189 c 0,-63 -0.01,-126 0,-189 z m -2717.1,418.02 v 189 h 189 v -189 z m 3762.1,209.01 c -0.01,63 -0.01,126 0,189 h 189 v -189 z m -2090.1,209.01 v 189 h 189 v -189 z m 418.02,0 v 189 h 189 v -189 z m 1463.1,0 c -0.01,63 -0.01,125.99 0,189 h 189 c -0.01,-63.01 -0.01,-126 0,-189 z m 209.01,0 c -0.01,63 -0.01,125.99 0,189 62.99,0 125.99,-0.01 189,0 v -189 z m 0,209.01 c -0.01,63 -0.01,125.99 0,189 62.99,0 125.99,-0.01 189,0 v -189 c -63.01,0 -126.01,-0.01 -189,0 z m -2299.1,209.01 v 189 c 63,-0.01 126,-0.01 189,0 v -189 c -63,-0.01 -126,-0.01 -189,0 z m -836.03,209.01 v 189 c 63,-0.01 126,-0.01 189,0 v -189 c -63,-0.01 -126,-0.01 -189,0 z m 1254,0 v 189 c 63,-0.01 126,-0.01 189,0 v -189 c -63,-0.01 -126,-0.01 -189,0 z m -2089.9,209.6 v 188 c 63,-0.01 126,-0.01 189,0 v -188 c -63,-0.01 -126,-0.01 -189,0 z m 418.52,0 v 188 c 62.67,-0.01 125.33,-0.01 188,0 v -188 c -62.67,-0.01 -125.33,-0.01 -188,0 z m 208.51,0 v 188 c 63,-0.01 126,-0.01 189,0 v -188 c -63,-0.01 -126,-0.01 -189,0 z m 2299.1,0 c -0.01,62.66 -0.01,125.33 0,188 63,-0.01 125.99,-0.01 189,0 -0.01,-62.67 -0.01,-125.34 0,-188 -63.01,-0.01 -126,-0.01 -189,0 z m -1881.1,208.51 v 189 c 63,-0.01 126,-0.01 189,0 v -189 c -63,-0.01 -126,-0.01 -189,0 z m 1463.1,0 v 189 c 63,-0.01 126,-0.01 189,0 v -189 c -63,-0.01 -126,-0.01 -189,0 z"
         id="path16" />
    </g>
    <g
       id="g1080"
       transform="translate(5.8208334)">
      <path
         d="m 109.73638,24.851379 c -23.421923,0 -42.277763,18.855826 -42.277763,42.277691 v 46.97449 H 79.202259 V 67.12907 c 0,-16.916436 13.618817,-30.534094 30.534121,-30.534094 16.9153,0 30.53413,13.617658 30.53413,30.534094 v 46.97449 h 11.74363 V 67.12907 c 0,-23.421865 -18.85584,-42.277691 -42.27776,-42.277691 z"
         style="fill:#000000;fill-rule:evenodd;stroke-width:1.16689444"
         id="rect2723"
         inkscape:connector-curvature="0" />
      <path
         sodipodi:nodetypes="cccc"
         inkscape:connector-curvature="0"
         id="path836"
         d="m 62.115349,104.56058 c 1.970311,48.61297 26.527818,59.31172 47.573971,75.90453 v -75.37 z"
         style="fill:#b89505;fill-opacity:1;fill-rule:evenodd;stroke:none;stroke-width:0.26458332px;stroke-linecap:butt;stroke-linejoin:miter;stroke-opacity:1" />
      <path
         sodipodi:nodetypes="cccc"
         inkscape:connector-curvature="0"
         id="path836-9"
         d="m 157.83796,104.56058 c -1.97032,48.61297 -26.52781,59.31172 -47.57397,75.90453 v -75.37 z"
         style="fill:#000000;fill-opacity:1;fill-rule:evenodd;stroke:none;stroke-width:0.26458332px;stroke-linecap:butt;stroke-linejoin:miter;stroke-opacity:1" />
      <rect
         y="66.61367"
         x="61.586189"
         height="37.417732"
         width="96.217026"
         id="rect826"
         style="opacity:1;fill:#009167;fill-opacity:1;stroke:none;stroke-width:1;stroke-linejoin:round;stroke-miterlimit:4;stroke-dasharray:none;stroke-dashoffset:0;stroke-opacity:1" />
      <path
         sodipodi:nodetypes="ccccc"
         inkscape:connector-curvature="0"
         id="path853"
         d="m 61.057042,66.613902 c -7.616571,76.461928 19.18092,97.081938 48.677648,113.322278 h 0.0698 c 29.49672,-16.24034 56.29421,-36.86035 48.67765,-113.322278 -33.90243,0 -68.398059,0 -97.425061,0 z"
         style="fill:none;fill-rule:evenodd;stroke:#000000;stroke-width:4.23333311;stroke-linecap:butt;stroke-linejoin:miter;stroke-miterlimit:4;stroke-dasharray:none;stroke-opacity:1" />
      <path
         inkscape:connector-curvature="0"
         id="rect887"
         d="m 61.586183,104.03141 h 99.011327 v 2.82622 H 61.586183 Z"
         style="opacity:1;fill:#000000;fill-opacity:1;stroke:none;stroke-width:4.23333311;stroke-linejoin:round;stroke-miterlimit:4;stroke-dasharray:none;stroke-dashoffset:0;stroke-opacity:1" />
      <path
         id="rect887-5"
         d="m 109.3238,179.76375 v -55.41452 h 2.00238 v 55.41452 z"
         style="opacity:1;fill:#000000;fill-opacity:1;stroke:none;stroke-width:2.66576004;stroke-linejoin:round;stroke-miterlimit:4;stroke-dasharray:none;stroke-dashoffset:0;stroke-opacity:1"
         inkscape:connector-curvature="0" />
      <path
         id="path942"
         d="m 109.86406,94.144311 a 13.402686,13.402686 0 0 0 -13.402826,13.402819 13.402686,13.402686 0 0 0 8.772556,12.55995 l -7.968343,24.15626 h 24.941583 l -7.94111,-24.07324 a 13.402686,13.402686 0 0 0 9.00051,-12.64297 13.402686,13.402686 0 0 0 -13.40237,-13.402819 z"
         style="opacity:1;fill:#ffffff;fill-opacity:1;stroke:#000000;stroke-width:3.16799998;stroke-linejoin:miter;stroke-miterlimit:4;stroke-dasharray:none;stroke-dashoffset:0;stroke-opacity:1"
         inkscape:connector-curvature="0" />
    </g>
  </g>
</svg>
